       <svg
         width="39"
        height="39"
        viewBox="0 0 39 39"
        fill="none"
        xmlns="http://www.w3.org/2000/svg"
      >
        <path
          d="M21.5891 0.000976562C23.7308 0.00668773 24.8178 0.0181101 25.7563 0.0447622L26.1256 0.0580882C26.5521 0.073318 26.9728 0.0923551 27.4811 0.1152C29.5067 0.210386 30.8888 0.530212 32.1014 1.00043C33.3579 1.48398 34.4164 2.13886 35.4748 3.19542C36.4432 4.14677 37.1923 5.29803 37.6698 6.56882C38.14 7.78149 38.4599 9.16359 38.5551 11.1911C38.5779 11.6974 38.5969 12.1182 38.6122 12.5465L38.6236 12.9158C38.6521 13.8525 38.6636 14.9395 38.6674 17.0812L38.6693 18.5014V20.9952C38.6739 22.3838 38.6593 23.7724 38.6255 25.1606L38.6141 25.5299C38.5988 25.9582 38.5798 26.379 38.557 26.8853C38.4618 28.9128 38.1381 30.293 37.6698 31.5076C37.1923 32.7784 36.4432 33.9296 35.4748 34.881C34.5235 35.8494 33.3722 36.5985 32.1014 37.076C30.8888 37.5462 29.5067 37.866 27.4811 37.9612L26.1256 38.0183L25.7563 38.0297C24.8178 38.0564 23.7308 38.0697 21.5891 38.0735L20.1689 38.0754H17.6769C16.2877 38.0803 14.8985 38.0657 13.5097 38.0316L13.1404 38.0202C12.6884 38.0031 12.2366 37.9834 11.7849 37.9612C9.75935 37.866 8.37725 37.5462 7.16267 37.076C5.89257 36.5982 4.74198 35.8492 3.79118 34.881C2.82208 33.9298 2.07233 32.7785 1.59429 31.5076C1.12407 30.2949 0.804242 28.9128 0.709056 26.8853L0.651944 25.5299L0.642426 25.1606C0.607333 23.7724 0.591467 22.3838 0.594833 20.9952V17.0812C0.589564 15.6926 0.603526 14.304 0.636715 12.9158L0.650041 12.5465C0.665271 12.1182 0.684308 11.6974 0.707152 11.1911C0.802339 9.16359 1.12216 7.78339 1.59238 6.56882C2.07154 5.29751 2.82261 4.14621 3.79309 3.19542C4.74333 2.22747 5.89325 1.47841 7.16267 1.00043C8.37725 0.530212 9.75745 0.210386 11.7849 0.1152C12.2913 0.0923551 12.7139 0.073318 13.1404 0.0580882L13.5097 0.0466658C14.8979 0.0128419 16.2864 -0.0017547 17.675 0.00288015L21.5891 0.000976562ZM19.6321 9.51959C17.1076 9.51959 14.6865 10.5224 12.9014 12.3075C11.1163 14.0926 10.1134 16.5137 10.1134 19.0382C10.1134 21.5627 11.1163 23.9838 12.9014 25.7689C14.6865 27.554 17.1076 28.5568 19.6321 28.5568C22.1565 28.5568 24.5776 27.554 26.3627 25.7689C28.1478 23.9838 29.1507 21.5627 29.1507 19.0382C29.1507 16.5137 28.1478 14.0926 26.3627 12.3075C24.5776 10.5224 22.1565 9.51959 19.6321 9.51959ZM19.6321 13.327C20.3821 13.3269 21.1247 13.4745 21.8177 13.7614C22.5107 14.0483 23.1403 14.4689 23.6707 14.9991C24.2012 15.5294 24.6219 16.1589 24.9091 16.8518C25.1962 17.5446 25.344 18.2872 25.3442 19.0372C25.3443 19.7872 25.1967 20.5299 24.9098 21.2229C24.6229 21.9158 24.2023 22.5455 23.6721 23.0759C23.1418 23.6064 22.5123 24.0271 21.8195 24.3143C21.1266 24.6014 20.384 24.7492 19.634 24.7494C18.1193 24.7494 16.6666 24.1477 15.5956 23.0766C14.5245 22.0056 13.9228 20.5529 13.9228 19.0382C13.9228 17.5235 14.5245 16.0708 15.5956 14.9998C16.6666 13.9287 18.1193 13.327 19.634 13.327M29.6285 6.664C28.9974 6.664 28.3921 6.91472 27.9458 7.36099C27.4996 7.80726 27.2488 8.41253 27.2488 9.04366C27.2488 9.67478 27.4996 10.2801 27.9458 10.7263C28.3921 11.1726 28.9974 11.4233 29.6285 11.4233C30.2596 11.4233 30.8649 11.1726 31.3112 10.7263C31.7574 10.2801 32.0081 9.67478 32.0081 9.04366C32.0081 8.41253 31.7574 7.80726 31.3112 7.36099C30.8649 6.91472 30.2596 6.664 29.6285 6.664Z"
          fill="#ffffff"
        />
      </svg>
