 <svg
        width="39"
        height="28"
        viewBox="0 0 39 28"
        fill="none"
        xmlns="http://www.w3.org/2000/svg"
      >
        <path
          d="M16.0144 19.5893L25.9552 13.8432L16.0144 8.09704V19.5893ZM38.1561 4.59191C38.4051 5.49213 38.5775 6.69882 38.6924 8.23112C38.8265 9.76341 38.8839 11.085 38.8839 12.2342L38.9989 13.8432C38.9989 18.0378 38.6924 21.1216 38.1561 23.0944C37.6773 24.8182 36.5663 25.9292 34.8425 26.408C33.9423 26.657 32.2951 26.8294 29.7668 26.9443C27.2768 27.0784 24.9975 27.1359 22.8906 27.1359L19.8451 27.2508C11.8197 27.2508 6.8206 26.9443 4.84777 26.408C3.12393 25.9292 2.01301 24.8182 1.53417 23.0944C1.28517 22.1942 1.11279 20.9875 0.997866 19.4552C0.86379 17.9229 0.806329 16.6013 0.806329 15.4521L0.691406 13.8432C0.691406 9.64849 0.997866 6.56474 1.53417 4.59191C2.01301 2.86807 3.12393 1.75715 4.84777 1.27831C5.74799 1.02931 7.39521 0.856929 9.92351 0.742006C12.4135 0.60793 14.6928 0.550469 16.7997 0.550469L19.8451 0.435547C27.8706 0.435547 32.8697 0.742007 34.8425 1.27831C36.5663 1.75715 37.6773 2.86807 38.1561 4.59191Z"
          fill="#ffffff"
        />
      </svg>